<svg width="22" height="18" viewBox="0 0 22 18" fill="none" xmlns="http://www.w3.org/2000/svg">
    <path d="M19.25 15.4167H21.0833V17.25H0.916666V15.4167H2.75V1.66667C2.75 1.42355 2.84658 1.19039 3.01848 1.01849C3.19039 0.846577 3.42355 0.75 3.66667 0.75H12.8333C13.0764 0.75 13.3096 0.846577 13.4815 1.01849C13.6534 1.19039 13.75 1.42355 13.75 1.66667V15.4167H15.5833V6.25H18.3333C18.5764 6.25 18.8096 6.34658 18.9815 6.51849C19.1534 6.69039 19.25 6.92355 19.25 7.16667V15.4167ZM6.41667 8.08333V9.91667H10.0833V8.08333H6.41667ZM6.41667 4.41667V6.25H10.0833V4.41667H6.41667Z" fill="#2C3E50"/>
</svg>
